<svg width="12" height="12" viewBox="0 0 12 12" fill="none" xmlns="http://www.w3.org/2000/svg">
<path d="M4.58579 6L0.343149 1.75736C-0.0473755 1.36684 -0.0473756 0.73367 0.343149 0.343146C0.733673 -0.0473788 1.36684 -0.0473785 1.75736 0.343146L6 4.58579L10.2426 0.343146C10.6332 -0.0473788 11.2663 -0.0473784 11.6569 0.343146C12.0474 0.73367 12.0474 1.36683 11.6569 1.75736L7.41422 6L11.6569 10.2426C12.0474 10.6332 12.0474 11.2663 11.6569 11.6569C11.2663 12.0474 10.6332 12.0474 10.2426 11.6569L6 7.41421L1.75736 11.6569C1.36684 12.0474 0.733673 12.0474 0.343148 11.6569C-0.0473762 11.2663 -0.0473759 10.6332 0.343148 10.2426L4.58579 6Z" fill="#6E7491"/>
</svg>
